<svg fill="currentcolor" viewBox="0 -960 960 960" xmlns="http://www.w3.org/2000/svg">
	<path d="M479.79-298.77q11.94 0 20.23-8.08t8.29-20.02-8.08-20.23q-8.08-8.28-20.02-8.28t-20.23 8.07q-8.29 8.08-8.29 20.02t8.08 20.23 20.02 8.29M454-428.92h52v-240h-52zM480.34-116q-75.11 0-141.48-28.42t-116.18-78.21-78.25-116.09Q116-405.01 116-480.39t28.42-141.25 78.21-115.68 116.09-78.25Q405.01-844 480.39-844t141.25 28.42 115.68 78.21 78.25 115.85Q844-555.45 844-480.34t-28.42 141.48-78.21 116.18-115.85 78.25Q555.45-116 480.34-116m-.34-52q130 0 221-91t91-221-91-221-221-91-221 91-91 221 91 221 221 91m0-312"/>
</svg>
