<svg viewBox="0 0 257 122" xmlns="http://www.w3.org/2000/svg">
	<path fill="currentcolor" d="M0 1.792h3.303l.757 4.51C6.503 4.169 11.527.933 17.067.933S27.32 3.961 27.32 12.087v27.408h-4.06v-27.58c0-5.303-3.235-7.61-7.158-7.61-4.198 0-9.29 3.03-12.008 5.302v29.82H0zm34.237 18.766c0-12.706 7.088-19.627 16.55-19.627s16.586 6.956 16.586 19.662-7.295 19.799-16.586 19.799-16.516-6.646-16.516-19.8m29.076.07c0-9.952-5.402-16.39-12.56-16.39-7.157 0-12.455 6.438-12.455 16.39 0 9.434 4.576 16.39 12.456 16.39 7.466 0 12.559-6.956 12.559-16.39m6.847-18.87h4.473l12.628 32.643h.138L99.855 1.792h4.404l-14.83 37.67h-4.405zm36.955 18.766c0-12.706 7.089-19.627 16.517-19.627s16.585 6.956 16.585 19.662-7.295 19.799-16.585 19.799-16.517-6.646-16.517-19.8m29.076.07c0-9.952-5.402-16.39-12.559-16.39-7.158 0-12.456 6.438-12.456 16.39 0 9.434 4.576 16.39 12.456 16.39 7.466 0 12.559-6.956 12.559-16.39M0 52.305h9.738v17.147c1.995-1.928 5.987-4.717 10.391-4.717 5.815 0 10.701 3.237 10.701 12.052V103.3h-9.737V77.373c0-3.478-1.996-5.027-4.44-5.027-2.442 0-5.401 1.687-6.95 3.03V103.3H0zm36.955 32.126c0-12.775 7.605-19.73 17.79-19.73s17.858 6.955 17.858 19.661-7.914 19.799-17.858 19.799-17.79-6.646-17.79-19.73m25.91.069c0-7.61-3.475-12.465-8.12-12.465-4.646 0-8.121 4.786-8.121 12.327 0 7.54 2.96 12.396 8.12 12.396 4.852 0 8.121-5.165 8.121-12.258m16.103-32.195h9.738v50.961h-9.738zm16.448 32.883c0-13.222 7.673-20.453 16.757-20.453 3.475 0 6.331 1.17 7.536 1.928V52.34h9.737v50.961h-8.705l-.723-3.168c-1.342 1.24-4.576 4.064-9.875 4.064-7.536 0-14.693-5.234-14.693-18.973m24.293 9.366V73.62c-1.239-.723-3.475-1.55-5.609-1.55-5.23 0-8.946 5.234-8.946 12.775 0 9.09 4.508 11.948 8.568 11.948 2.89 0 5.092-1.55 5.987-2.203m17.652-38.497c0-2.961 2.58-5.475 5.608-5.475s5.403 2.514 5.403 5.475-2.512 5.544-5.403 5.544c-3.028 0-5.608-2.514-5.608-5.544m.722 9.538h9.738v37.67h-9.738zm18.547-.034h8.499l.722 4.063c1.996-1.928 6.194-4.958 10.77-4.958 5.987 0 10.839 3.236 10.839 12.051v26.514h-9.738V77.27c0-3.478-2.064-4.959-4.507-4.959s-5.299 1.688-6.848 3.03v27.926h-9.737zm35.991 44.832c0-3.753 2.891-6.646 5.747-8.402-1.927-1.033-2.822-3.03-2.822-5.165 0-2.582 1.617-5.681 4.439-7.472-3.028-2.204-5.024-5.922-5.024-10.777 0-8.574 6.503-13.877 14.383-13.877 2.202 0 4.198.31 6.125.895h12.009v6.853h-5.024v.31c1.032 1.618 1.686 3.546 1.686 6.129 0 7.988-6.503 13.153-14.521 13.153-1.617 0-3.096-.138-4.576-.516-.826.516-1.548 1.687-1.548 2.65 0 1.172.894 2.308 3.165 2.308h9.359c7.674 0 10.977 4.27 10.977 10.399 0 8.849-7.88 14.117-18.822 14.117-9.669 0-15.656-4.648-15.656-10.571m25.841-2.444c0-2.721-2.443-4.063-6.572-4.063h-8.052c-1.41.826-2.959 2.582-2.959 4.855 0 3.099 3.338 5.234 8.499 5.234 5.987 0 9.084-2.514 9.084-6.061m-3.028-29.302c0-3.823-2.305-6.956-5.815-6.956s-5.918 3.099-5.918 7.093c0 3.995 2.305 6.956 5.918 6.956s5.815-3.1 5.815-7.094m16.413 23.035v-7.54h3.166c2.133 1.24 5.092 2.582 7.673 2.582s5.024-1.102 5.024-3.822c0-6.06-15.725-6.336-15.725-16.907 0-7.23 7.019-11.294 13.936-11.294 3.922 0 8.258 1.033 10.253 2.135v7.54h-3.165c-1.755-1.101-4.061-2.375-6.641-2.375s-4.886 1.17-4.886 3.615c0 6.198 15.553 6.13 15.553 16.77 0 7.609-7.089 11.741-14.246 11.741-3.75 0-9.152-1.274-10.976-2.445"/>
</svg>
