<svg fill="currentcolor" viewBox="0 -960 960 960" xmlns="http://www.w3.org/2000/svg">
	<path d="M229.08-205.08v-52H310l-13.08-13.84q-42.3-39.62-68.61-92.62T202-479.23q0-93.69 55.23-165.96T398-744.15v54.23q-63.39 25.3-103.69 81.73Q254-551.77 254-479.23q0 49.92 20.27 92.65t54.81 73.27l15.38 15.39v-74.54h52v167.38zM562-215.85v-54.23q63.39-25.3 103.69-81.73Q706-408.23 706-480.77q0-49.92-20.27-92.65t-54.81-73.27l-15.38-15.39v74.54h-52v-167.38h167.38v52H650l13.08 13.84q43.46 38.47 69.19 92.04Q758-543.46 758-480.77q0 93.69-55.23 165.96T562-215.85"/>
</svg>
